<svg xmlns="http://www.w3.org/2000/svg" width="800" height="800" fill="none" viewBox="0 -4 32 32"><path fill="url(#a)" d="M29.09 0H2.91A2.91 2.91 0 0 0 0 2.91v17.454a2.91 2.91 0 0 0 2.91 2.909h26.18a2.909 2.909 0 0 0 2.91-2.91V2.91A2.91 2.91 0 0 0 29.09 0Z"/><path fill="#000" d="M32 4.364H0v5.818h32V4.364Z" style="mix-blend-mode:soft-light"/><path fill="#fff" d="M26.909 16h-4.364a.727.727 0 0 0-.727.727v1.455c0 .402.325.727.727.727h4.364a.727.727 0 0 0 .727-.727v-1.455A.727.727 0 0 0 26.91 16Z" style="mix-blend-mode:soft-light"/><path fill="#fff" fill-rule="evenodd" d="M8 19.379a2.9 2.9 0 0 1-2.182.985 2.92 2.92 0 0 1-1.845-.66 2.915 2.915 0 0 1-1.008-2.817A2.907 2.907 0 0 1 6.43 14.61a2.906 2.906 0 0 1 1.57.92 2.9 2.9 0 0 1 2.182-.985 2.918 2.918 0 0 1 2.057.853 2.89 2.89 0 0 1 .796 1.489 2.886 2.886 0 0 1-.07 1.412 2.924 2.924 0 0 1-.938 1.404 2.903 2.903 0 0 1-2.457.596 2.906 2.906 0 0 1-1.57-.92Z" clip-rule="evenodd" style="mix-blend-mode:soft-light"/><defs><radialGradient id="a" cx="0" cy="0" r="1" gradientTransform="rotate(143.02 -3.344 11.82) scale(38.6884 53.1966)" gradientUnits="userSpaceOnUse"><stop stop-color="#5E22CD"/><stop offset="1" stop-color="#AE76FF"/></radialGradient></defs></svg>